# xmcd
#
# Track frame offsets:
#	150
#	13325
#	27221
#	40563
#	55957
#	68462
#	85597
#	99164
#	115148
#	129831
#	145564
#	158954
#	173205
#	189853
#
# Disc length: 2860 seconds
#
# Revision: 2
# Processed by: cddbd v1.5.2PL0 Copyright (c) Steve Scherf et al.
# Submitted via: audiograbber 1.83.01
#
DISCID=9f0b2a0e
DTITLE=Linda Feller - Leben Mit Dir
DYEAR=1900
DGENRE=Pop
TTITLE0=Wenn Überhaupt
TTITLE1=Du Weißt, Was Frauen Lieben
TTITLE2=Männer Wollen Nur Das Eine
TTITLE3=Tu's Doch
TTITLE4=Auch Eine Frau Kann Durchaus Ihren Mann Stehen
TTITLE5=Du Bist Das Salz In Meiner Suppe
TTITLE6=Minuten Im Fieber
TTITLE7=Andere Mütter Haben Auch Ein Schönes Kind
TTITLE8=Das Imponiert Mir Nicht
TTITLE9=Nadelstreifenmann
TTITLE10=Leben Mit Dir
TTITLE11=Dieses Lied Sing Ich Für Die Liebe
TTITLE12=Tanzen Mit Dem Wind
TTITLE13=Hit Medley
EXTD=Kein Country !!!
EXTT0=
EXTT1=
EXTT2=
EXTT3=
EXTT4=
EXTT5=
EXTT6=
EXTT7=
EXTT8=
EXTT9=
EXTT10=
EXTT11=
EXTT12=
EXTT13=
PLAYORDER=
